<svg xmlns="http://www.w3.org/2000/svg" style="display:none">
  <symbol id="icon-home" viewBox="0 0 24 24" fill="none" stroke="currentColor" stroke-width="2" stroke-linecap="round" stroke-linejoin="round"><path d="M3 11l9-8 9 8"></path><path d="M5 10v10a1 1 0 0 0 1 1h4v-6h4v6h4a1 1 0 0 0 1-1V10"></path></symbol>
  <symbol id="icon-wheel" viewBox="0 0 24 24" fill="none" stroke="currentColor" stroke-width="2" stroke-linecap="round" stroke-linejoin="round"><circle cx="12" cy="12" r="10"></circle><circle cx="12" cy="12" r="3.5"></circle><line x1="12" y1="8.5" x2="12" y2="2"></line><line x1="12" y1="15.5" x2="12" y2="22"></line><line x1="8.5" y1="12" x2="2" y2="12"></line><line x1="15.5" y1="12" x2="22" y2="12"></line><line x1="14.5" y1="9.5" x2="19.07" y2="4.93"></line><line x1="9.5" y1="9.5" x2="4.93" y2="4.93"></line><line x1="14.5" y1="14.5" x2="19.07" y2="19.07"></line><line x1="9.5" y1="14.5" x2="4.93" y2="19.07"></line></symbol>
  <symbol id="icon-movies" viewBox="0 0 24 24" fill="none" stroke="currentColor" stroke-width="2" stroke-linecap="round" stroke-linejoin="round"><rect x="2" y="3" width="20" height="18" rx="2"></rect><line x1="7" y1="3" x2="7" y2="21"></line><line x1="17" y1="3" x2="17" y2="21"></line><line x1="2" y1="8" x2="7" y2="8"></line><line x1="2" y1="16" x2="7" y2="16"></line><line x1="17" y1="8" x2="22" y2="8"></line><line x1="17" y1="16" x2="22" y2="16"></line></symbol>
  <symbol id="icon-cartoons" viewBox="0 0 24 24" fill="none" stroke="currentColor" stroke-width="2" stroke-linecap="round" stroke-linejoin="round"><circle cx="12" cy="12" r="10"></circle><path d="M8 14s1.5 2 4 2 4-2 4-2"></path><line x1="9" y1="9" x2="9.01" y2="9"></line><line x1="15" y1="9" x2="15.01" y2="9"></line></symbol>
  <symbol id="icon-series" viewBox="0 0 24 24" fill="none" stroke="currentColor" stroke-width="2" stroke-linecap="round" stroke-linejoin="round"><rect x="2" y="7" width="20" height="15" rx="2"></rect><polyline points="17 2 12 7 7 2"></polyline></symbol>
  <symbol id="icon-premiere" viewBox="0 0 24 24" fill="none" stroke="currentColor" stroke-width="2" stroke-linecap="round" stroke-linejoin="round"><polygon points="12 2 15.09 8.36 22 9.27 17 14.14 18.18 21.02 12 17.77 5.82 21.02 7 14.14 2 9.27 8.91 8.36 12 2"></polygon></symbol>
  <symbol id="icon-list" viewBox="0 0 24 24" fill="none" stroke="currentColor" stroke-width="2" stroke-linecap="round" stroke-linejoin="round"><path d="M12 20h9"></path><path d="M16.5 3.5a2.12 2.12 0 0 1 3 3L7 19l-4 1 1-4Z"></path></symbol>
  <symbol id="icon-marvel" viewBox="0 0 24 24" fill="none" stroke="currentColor" stroke-width="2" stroke-linecap="round" stroke-linejoin="round"><line x1="12" y1="12" x2="12" y2="2"></line><line x1="12" y1="12" x2="20.7" y2="7"></line><line x1="12" y1="12" x2="20.7" y2="17"></line><line x1="12" y1="12" x2="12" y2="22"></line><line x1="12" y1="12" x2="3.3" y2="17"></line><line x1="12" y1="12" x2="3.3" y2="7"></line><polygon points="12 6.4 16.8 9.2 16.8 14.8 12 17.6 7.2 14.8 7.2 9.2"></polygon><polygon points="12 2 20.7 7 20.7 17 12 22 3.3 17 3.3 7"></polygon></symbol>
  <symbol id="icon-dc" viewBox="0 0 24 24" fill="none" stroke="currentColor" stroke-width="2" stroke-linecap="round" stroke-linejoin="round"><circle cx="8.5" cy="12" r="7"></circle><circle cx="15.5" cy="12" r="7"></circle></symbol>
  <symbol id="icon-upcoming" viewBox="0 0 24 24" fill="none" stroke="currentColor" stroke-width="2" stroke-linecap="round" stroke-linejoin="round"><circle cx="12" cy="12" r="10"></circle><polyline points="12 6 12 12 16 14"></polyline></symbol>
  <symbol id="icon-history" viewBox="0 0 24 24" fill="none" stroke="currentColor" stroke-width="2" stroke-linecap="round" stroke-linejoin="round"><polyline points="3 8 3 21 21 21 21 8"></polyline><rect x="1" y="3" width="22" height="5"></rect><line x1="10" y1="12" x2="14" y2="12"></line></symbol>
  <symbol id="icon-theaters" viewBox="0 0 24 24" fill="none" stroke="currentColor" stroke-width="2" stroke-linecap="round" stroke-linejoin="round"><polygon points="23 7 16 12 23 17 23 7"></polygon><rect x="1" y="5" width="15" height="14" rx="2"></rect></symbol>
  <symbol id="icon-bell" viewBox="0 0 24 24" fill="none" stroke="currentColor" stroke-width="2" stroke-linecap="round" stroke-linejoin="round"><path d="M18 8a6 6 0 0 0-12 0c0 7-3 9-3 9h18s-3-2-3-9"></path><path d="M13.73 21a2 2 0 0 1-3.46 0"></path></symbol>
</svg>
